<svg xmlns="http://www.w3.org/2000/svg" viewBox="0 0 240 15" width="960" height="60" shape-rendering="crispEdges" xmlns:c2pa="http://c2pa.org/manifest"><metadata><c2pa:manifest>AAAWgmp1bWIAAAAeanVtZGMycGEAEQAQgAAAqgA4m3EDYzJwYQAAABZcanVtYgAAAEdqdW1kYzJtYQARABCAAACqADibcQN1cm46YzJwYTpjZDg0NGMxNy05NGY0LTQ1MTItYjgyNi1hZmRlNTAzNWNjYzUAAAADl2p1bWIAAAApanVtZGMyYXMAEQAQgAAAqgA4m3EDYzJwYS5hc3NlcnRpb25zAAAAALxqdW1iAAAARGp1bWRjYm9yABEAEIAAAKoAOJtxE2MycGEuaW5ncmVkaWVudC52MwAAAAAYYzJzaHgGknQGxV7WNMaqtQ6O8o8AAABwY2JvcqNpZGM6Zm9ybWF0bWltYWdlL3N2Zyt4bWxqaW5zdGFuY2VJRHgseG1wOmlpZDplNGRlNWYyZi0zMTU3LTQwOTEtYWMwOC03N2JmMDA0Y2M3YzZscmVsYXRpb25zaGlwaHBhcmVudE9mAAAB4mp1bWIAAABBanVtZGNib3IAEQAQgAAAqgA4m3ETYzJwYS5hY3Rpb25zLnYyAAAAABhjMnNoQs5BTeJ0kiTTCpaE/UPm/AAAAZljYm9yomdhY3Rpb25zgqJmYWN0aW9ua2MycGEub3BlbmVkanBhcmFtZXRlcnOha2luZ3JlZGllbnRzgaJjdXJseC1zZWxmI2p1bWJmPWMycGEuYXNzZXJ0aW9ucy9jMnBhLmluZ3JlZGllbnQudjNkaGFzaFgg/eJCXFTxK1HLx8SBKcJWEph9I5iGQ/hZBC72/Jrfr8KkZmFjdGlvbngdY29tLmFudGhyb3BpYy5jbGF1ZGUucHJvdmlkZWRqcGFyYW1ldGVyc6F4H2NvbS5hbnRocm9waWMub3JpZ2luLWNvbmZpZGVuY2VndW5rbm93bmtkZXNjcmlwdGlvbnhmQ2xhdWRlIHByb3ZpZGVkIHRoaXMgZmlsZSBhdCB0aGUgcmVxdWVzdCBvZiBhIHVzZXIgYW5kIG1heSBoYXZlIGNyZWF0ZWQgb3IgbW9kaWZpZWQgdGhlIGZpbGUgY29udGVudHMubXNvZnR3YXJlQWdlbnShZG5hbWVmQ2xhdWRlcmFsbEFjdGlvbnNJbmNsdWRlZPUAAADIanVtYgAAAEBqdW1kY2JvcgARABCAAACqADibcRNjMnBhLmhhc2guZGF0YQAAAAAYYzJzaNcFiYECawXiVtrkruNn8GEAAACAY2JvcqVjYWxnZnNoYTI1NmNwYWRNAAAAAAAAAAAAAAAAAGRoYXNoWCCyALr8hyOL1ugQ2PTUErUaVlN7FTx9jBoXef0R0H3VdWRuYW1lbmp1bWJmIG1hbmlmZXN0amV4Y2x1c2lvbnOBomVzdGFydBixZmxlbmd0aBkeBAAAAj5qdW1iAAAAJ2p1bWRjMmNsABEAEIAAAKoAOJtxA2MycGEuY2xhaW0udjIAAAACD2Nib3KlY2FsZ2ZzaGEyNTZpc2lnbmF0dXJleE1zZWxmI2p1bWJmPS9jMnBhL3VybjpjMnBhOmNkODQ0YzE3LTk0ZjQtNDUxMi1iODI2LWFmZGU1MDM1Y2NjNS9jMnBhLnNpZ25hdHVyZWppbnN0YW5jZUlEeCx4bXA6aWlkOmI5YTEzOGMwLTE0OGEtNDYxYS04ZWU4LWQzNzVkZmQ0Mjc5NHJjcmVhdGVkX2Fzc2VydGlvbnODomN1cmx4LXNlbGYjanVtYmY9YzJwYS5hc3NlcnRpb25zL2MycGEuaW5ncmVkaWVudC52M2RoYXNoWCD94kJcVPErUcvHxIEpwlYSmH0jmIZD+FkELvb8mt+vwqJjdXJseCpzZWxmI2p1bWJmPWMycGEuYXNzZXJ0aW9ucy9jMnBhLmFjdGlvbnMudjJkaGFzaFggz7YE89i7UPxl02vHHxtPwwa1+Nr94Xb8vAQ0yoX+crKiY3VybHgpc2VsZiNqdW1iZj1jMnBhLmFzc2VydGlvbnMvYzJwYS5oYXNoLmRhdGFkaGFzaFgg0RkSeajpOJ5Hn78ZXV5+FWzDdLybFUZZKwnpVWKcOsN0Y2xhaW1fZ2VuZXJhdG9yX2luZm+jZG5hbWVvQW50aHJvcGljIEZpbGVzZ3ZlcnNpb25lMS4wLjBrc3BlY1ZlcnNpb25lMi40LjAAABA4anVtYgAAAChqdW1kYzJjcwARABCAAACqADibcQNjMnBhLnNpZ25hdHVyZQAAABAIY2JvctKEWQISogEmGCFZAgowggIGMIIBjaADAgECAhRA5aAK7sI50L64g/oGQgU9Z1UTADAKBggqhkjOPQQDAzBJMRcwFQYDVQQKEw5BbnRocm9waWMsIFBCQzEuMCwGA1UEAxMlQW50aHJvcGljIENvbnRlbnQgQ3JlZGVudGlhbHMgUm9vdCBDQTAeFw0yNjA4MDcxODQzNTZaFw0yODA4MDYxOTQzNTZaMEQxFzAVBgNVBAoTDkFudGhyb3BpYywgUEJDMSkwJwYDVQQDEyBBbnRocm9waWMgQ2xhdWRlIENvbnRlbnQgU2lnbmluZzBZMBMGByqGSM49AgEGCCqGSM49AwEHA0IABJh6CmvLUBgFFNU0vUKlOVtE6djd17L5SuwX0LemFisBM3dkd/3cyjxFA3Qo5S46fX0/ihY0VZ7mfb9KF703t5OjWDBWMA4GA1UdDwEB/wQEAwIHgDAVBgNVHSUEDjAMBgorBgEEAYPoXgIBMAwGA1UdEwEB/wQCMAAwHwYDVR0jBBgwFoAUzlHiBIFOZFsj+OPEz5o+nMHXXMIwCgYIKoZIzj0EAwMDZwAwZAIwMXMdFJ4BetLLVY7ORuE9noqbbAZOZn/aArXyTwFAZfKrPzxF2vPoJNf1+UCdg1XGAjBwX1zd9WGqYkqmL5SFqw1QySjr1zJfpJM9+1rdDwSPLMOPOjKuiXjoU/pUUeG9RwmhY3BhZFkNngAAAAAAAAAAAAAAAAAAAAAAAAAAAAAAAAAAAAAAAAAAAAAAAAAAAAAAAAAAAAAAAAAAAAAAAAAAAAAAAAAAAAAAAAAAAAAAAAAAAAAAAAAAAAAAAAAAAAAAAAAAAAAAAAAAAAAAAAAAAAAAAAAAAAAAAAAAAAAAAAAAAAAAAAAAAAAAAAAAAAAAAAAAAAAAAAAAAAAAAAAAAAAAAAAAAAAAAAAAAAAAAAAAAAAAAAAAAAAAAAAAAAAAAAAAAAAAAAAAAAAAAAAAAAAAAAAAAAAAAAAAAAAAAAAAAAAAAAAAAAAAAAAAAAAAAAAAAAAAAAAAAAAAAAAAAAAAAAAAAAAAAAAAAAAAAAAAAAAAAAAAAAAAAAAAAAAAAAAAAAAAAAAAAAAAAAAAAAAAAAAAAAAAAAAAAAAAAAAAAAAAAAAAAAAAAAAAAAAAAAAAAAAAAAAAAAAAAAAAAAAAAAAAAAAAAAAAAAAAAAAAAAAAAAAAAAAAAAAAAAAAAAAAAAAAAAAAAAAAAAAAAAAAAAAAAAAAAAAAAAAAAAAAAAAAAAAAAAAAAAAAAAAAAAAAAAAAAAAAAAAAAAAAAAAAAAAAAAAAAAAAAAAAAAAAAAAAAAAAAAAAAAAAAAAAAAAAAAAAAAAAAAAAAAAAAAAAAAAAAAAAAAAAAAAAAAAAAAAAAAAAAAAAAAAAAAAAAAAAAAAAAAAAAAAAAAAAAAAAAAAAAAAAAAAAAAAAAAAAAAAAAAAAAAAAAAAAAAAAAAAAAAAAAAAAAAAAAAAAAAAAAAAAAAAAAAAAAAAAAAAAAAAAAAAAAAAAAAAAAAAAAAAAAAAAAAAAAAAAAAAAAAAAAAAAAAAAAAAAAAAAAAAAAAAAAAAAAAAAAAAAAAAAAAAAAAAAAAAAAAAAAAAAAAAAAAAAAAAAAAAAAAAAAAAAAAAAAAAAAAAAAAAAAAAAAAAAAAAAAAAAAAAAAAAAAAAAAAAAAAAAAAAAAAAAAAAAAAAAAAAAAAAAAAAAAAAAAAAAAAAAAAAAAAAAAAAAAAAAAAAAAAAAAAAAAAAAAAAAAAAAAAAAAAAAAAAAAAAAAAAAAAAAAAAAAAAAAAAAAAAAAAAAAAAAAAAAAAAAAAAAAAAAAAAAAAAAAAAAAAAAAAAAAAAAAAAAAAAAAAAAAAAAAAAAAAAAAAAAAAAAAAAAAAAAAAAAAAAAAAAAAAAAAAAAAAAAAAAAAAAAAAAAAAAAAAAAAAAAAAAAAAAAAAAAAAAAAAAAAAAAAAAAAAAAAAAAAAAAAAAAAAAAAAAAAAAAAAAAAAAAAAAAAAAAAAAAAAAAAAAAAAAAAAAAAAAAAAAAAAAAAAAAAAAAAAAAAAAAAAAAAAAAAAAAAAAAAAAAAAAAAAAAAAAAAAAAAAAAAAAAAAAAAAAAAAAAAAAAAAAAAAAAAAAAAAAAAAAAAAAAAAAAAAAAAAAAAAAAAAAAAAAAAAAAAAAAAAAAAAAAAAAAAAAAAAAAAAAAAAAAAAAAAAAAAAAAAAAAAAAAAAAAAAAAAAAAAAAAAAAAAAAAAAAAAAAAAAAAAAAAAAAAAAAAAAAAAAAAAAAAAAAAAAAAAAAAAAAAAAAAAAAAAAAAAAAAAAAAAAAAAAAAAAAAAAAAAAAAAAAAAAAAAAAAAAAAAAAAAAAAAAAAAAAAAAAAAAAAAAAAAAAAAAAAAAAAAAAAAAAAAAAAAAAAAAAAAAAAAAAAAAAAAAAAAAAAAAAAAAAAAAAAAAAAAAAAAAAAAAAAAAAAAAAAAAAAAAAAAAAAAAAAAAAAAAAAAAAAAAAAAAAAAAAAAAAAAAAAAAAAAAAAAAAAAAAAAAAAAAAAAAAAAAAAAAAAAAAAAAAAAAAAAAAAAAAAAAAAAAAAAAAAAAAAAAAAAAAAAAAAAAAAAAAAAAAAAAAAAAAAAAAAAAAAAAAAAAAAAAAAAAAAAAAAAAAAAAAAAAAAAAAAAAAAAAAAAAAAAAAAAAAAAAAAAAAAAAAAAAAAAAAAAAAAAAAAAAAAAAAAAAAAAAAAAAAAAAAAAAAAAAAAAAAAAAAAAAAAAAAAAAAAAAAAAAAAAAAAAAAAAAAAAAAAAAAAAAAAAAAAAAAAAAAAAAAAAAAAAAAAAAAAAAAAAAAAAAAAAAAAAAAAAAAAAAAAAAAAAAAAAAAAAAAAAAAAAAAAAAAAAAAAAAAAAAAAAAAAAAAAAAAAAAAAAAAAAAAAAAAAAAAAAAAAAAAAAAAAAAAAAAAAAAAAAAAAAAAAAAAAAAAAAAAAAAAAAAAAAAAAAAAAAAAAAAAAAAAAAAAAAAAAAAAAAAAAAAAAAAAAAAAAAAAAAAAAAAAAAAAAAAAAAAAAAAAAAAAAAAAAAAAAAAAAAAAAAAAAAAAAAAAAAAAAAAAAAAAAAAAAAAAAAAAAAAAAAAAAAAAAAAAAAAAAAAAAAAAAAAAAAAAAAAAAAAAAAAAAAAAAAAAAAAAAAAAAAAAAAAAAAAAAAAAAAAAAAAAAAAAAAAAAAAAAAAAAAAAAAAAAAAAAAAAAAAAAAAAAAAAAAAAAAAAAAAAAAAAAAAAAAAAAAAAAAAAAAAAAAAAAAAAAAAAAAAAAAAAAAAAAAAAAAAAAAAAAAAAAAAAAAAAAAAAAAAAAAAAAAAAAAAAAAAAAAAAAAAAAAAAAAAAAAAAAAAAAAAAAAAAAAAAAAAAAAAAAAAAAAAAAAAAAAAAAAAAAAAAAAAAAAAAAAAAAAAAAAAAAAAAAAAAAAAAAAAAAAAAAAAAAAAAAAAAAAAAAAAAAAAAAAAAAAAAAAAAAAAAAAAAAAAAAAAAAAAAAAAAAAAAAAAAAAAAAAAAAAAAAAAAAAAAAAAAAAAAAAAAAAAAAAAAAAAAAAAAAAAAAAAAAAAAAAAAAAAAAAAAAAAAAAAAAAAAAAAAAAAAAAAAAAAAAAAAAAAAAAAAAAAAAAAAAAAAAAAAAAAAAAAAAAAAAAAAAAAAAAAAAAAAAAAAAAAAAAAAAAAAAAAAAAAAAAAAAAAAAAAAAAAAAAAAAAAAAAAAAAAAAAAAAAAAAAAAAAAAAAAAAAAAAAAAAAAAAAAAAAAAAAAAAAAAAAAAAAAAAAAAAAAAAAAAAAAAAAAAAAAAAAAAAAAAAAAAAAAAAAAAAAAAAAAAAAAAAAAAAAAAAAAAAAAAAAAAAAAAAAAAAAAAAAAAAAAAAAAAAAAAAAAAAAAAAAAAAAAAAAAAAAAAAAAAAAAAAAAAAAAAAAAAAAAAAAAAAAAAAAAAAAAAAAAAAAAAAAAAAAAAAAAAAAAAAAAAAAAAAAAAAAAAAAAAAAAAAAAAAAAAAAAAAAAAAAAAAAAAAAAAAAAAAAAAAAAAAAAAAAAAAAAAAAAAAAAAAAAAAAAAAAAAAAAAAAAAAAAAAAAAAAAAAAAAAAAAAAAAAAAAAAAAAAAAAAAAAAAAAAAAAAAAAAAAAAAAAAAAAAAAAAAAAAAAAAAAAAAAAAAAAAAAAAAAAAAAAAAAAAAAAAAAAAAAAAAAAAAAAAAAAAAAAAAAAAAAAAAAAAAAAAAAAAAAAAAAAAAAAAAAAAAAAAAAAAAAAAAAAAAAAAAAAAAAAAAAAAAAAAAAAAAAAAAAAAAAAAAAAAAAAAAAAAAAAAAAAAAAAAAAAAAAAAAAAAAAAAAAAAAAAAAAAAAAAAAAAAAAAAAAAAAAAAAAAAAAAAAAAAAAAAAAAAAAAAAAAAAAAAAAAAAAAAAAAAAAAAAAAAAAAAAAAAAAAAAAAAAAAAAAAAAAAAAAAAAAAAAAAAAAAAAAAAAAAAAAAAAAAAAAAAAAAAAAAAAAAAAAAAAAAAAAAAAAAAAAAAAAAAAAAAAAAAAAAAAAAAAAAAAAAAAAAAAAAAAAAAAAAAAAAAAAAAAAAAAAAAAAAAAAAAAAAAAAAAAAAAAAAAAAAAAAAAAAAAAAAAAAAAAAAAAAAAAAAAAAAAAAAAAAAAAAAAAAAAAAAAAAAAAAAAAAAAAAAAAAAAAAAAAAAAAAAAAAAAAAAAAAAAAAAAAAAAAAAAAAAAAAAAAAAAAAAAAAAAAAAAAAAAAAAAAAAAAAAAAAAAAAAAAAAAAAAAAAAAAAAAAAAAAAAAAAAAAAAAAAAAAAAAAAAAAAAAAAAAAAAAAAAAAAAAAAAAAAAAAAAAAAAAAAAAAAAAAAAAAAAAAAAAAAAAAAAAAAAAAAAAAAAAAAAAAAAAAAAAAAAAAAAAAAAAAAAAAAAAAAAAAAAAAAAAAAAAAAAAAAAAAAAAAAAAAAAAAAAAAAAAAAAAAAAAAAAAAAAAAAAAAAAAAAAAAAAAAAAAAAAAAAAAAAAAAAAAAAAAAAAAAAAAAAAAAAAAAAAAAAAAAAAAAAAAAAAAAAAAAAAAAAAAAAAAAAAAAAAAAAAAAAAAAAAAAAAAAAAAAAAAAAAAAAAAAAAAAAAAAAAAAAAAAAAAAAAAAAAAAAAAAAAAAAAAAAAAAAAAAAAAAAAAAAAAAAAAAAAAAAAAAAAAAAAAAAAAAAAAAAAAAAAAAAAAAAAAAAAAAAAAAAAAAAAAAAAAAAAAAAAAAAAAAAAAAAAAAAAAAAAAAAAAAAAAAAAAAAAAAAAAAAAAAAAAAAAAAAAAAAAAAAAAAAAAAAAAAAAAAAAAAAAAAAAAAAAAAAAAPZYQA7eLrVGiy8E1abMHt7YetaR/zuyJOJsMRD4VipeOO1A/STmSg08/DPoyzy4RGKduArvDQBqRgIoRh2y9hBcgKc=</c2pa:manifest></metadata><rect x="0" y="0" width="240" height="15" fill="#e2837a"/><rect x="0" y="12" width="240" height="3" fill="#d4707b"/><rect x="8" y="4" width="1" height="1" fill="#fff1c9"/><rect x="10" y="4" width="1" height="1" fill="#fff1c9"/><rect x="7" y="5" width="1" height="1" fill="#fff1c9"/><rect x="8" y="5" width="1" height="1" fill="#fff1c9"/><rect x="9" y="5" width="1" height="1" fill="#fff1c9"/><rect x="10" y="5" width="1" height="1" fill="#fff1c9"/><rect x="11" y="5" width="1" height="1" fill="#fff1c9"/><rect x="6" y="6" width="1" height="1" fill="#fff1c9"/><rect x="7" y="6" width="1" height="1" fill="#fff1c9"/><rect x="8" y="6" width="1" height="1" fill="#fff1c9"/><rect x="9" y="6" width="1" height="1" fill="#fff1c9"/><rect x="10" y="6" width="1" height="1" fill="#fff1c9"/><rect x="11" y="6" width="1" height="1" fill="#fff1c9"/><rect x="12" y="6" width="1" height="1" fill="#fff1c9"/><rect x="6" y="7" width="1" height="1" fill="#fff1c9"/><rect x="7" y="7" width="1" height="1" fill="#fff1c9"/><rect x="8" y="7" width="1" height="1" fill="#fff1c9"/><rect x="9" y="7" width="1" height="1" fill="#fff1c9"/><rect x="10" y="7" width="1" height="1" fill="#fff1c9"/><rect x="11" y="7" width="1" height="1" fill="#fff1c9"/><rect x="12" y="7" width="1" height="1" fill="#fff1c9"/><rect x="6" y="8" width="1" height="1" fill="#fff1c9"/><rect x="7" y="8" width="1" height="1" fill="#fff1c9"/><rect x="8" y="8" width="1" height="1" fill="#fff1c9"/><rect x="9" y="8" width="1" height="1" fill="#fff1c9"/><rect x="10" y="8" width="1" height="1" fill="#fff1c9"/><rect x="11" y="8" width="1" height="1" fill="#fff1c9"/><rect x="12" y="8" width="1" height="1" fill="#fff1c9"/><rect x="7" y="9" width="1" height="1" fill="#fff1c9"/><rect x="8" y="9" width="1" height="1" fill="#fff1c9"/><rect x="9" y="9" width="1" height="1" fill="#fff1c9"/><rect x="10" y="9" width="1" height="1" fill="#fff1c9"/><rect x="11" y="9" width="1" height="1" fill="#fff1c9"/><rect x="8" y="10" width="1" height="1" fill="#fff1c9"/><rect x="10" y="10" width="1" height="1" fill="#fff1c9"/><rect x="19" y="6" width="1" height="1" fill="#fdeee4"/><rect x="20" y="6" width="1" height="1" fill="#fdeee4"/><rect x="21" y="6" width="1" height="1" fill="#fdeee4"/><rect x="22" y="7" width="1" height="1" fill="#fdeee4"/><rect x="19" y="8" width="1" height="1" fill="#fdeee4"/><rect x="20" y="8" width="1" height="1" fill="#fdeee4"/><rect x="21" y="8" width="1" height="1" fill="#fdeee4"/><rect x="22" y="8" width="1" height="1" fill="#fdeee4"/><rect x="18" y="9" width="1" height="1" fill="#fdeee4"/><rect x="22" y="9" width="1" height="1" fill="#fdeee4"/><rect x="19" y="10" width="1" height="1" fill="#fdeee4"/><rect x="20" y="10" width="1" height="1" fill="#fdeee4"/><rect x="21" y="10" width="1" height="1" fill="#fdeee4"/><rect x="22" y="10" width="1" height="1" fill="#fdeee4"/><rect x="24" y="4" width="1" height="1" fill="#fdeee4"/><rect x="24" y="5" width="1" height="1" fill="#fdeee4"/><rect x="24" y="6" width="1" height="1" fill="#fdeee4"/><rect x="25" y="6" width="1" height="1" fill="#fdeee4"/><rect x="26" y="6" width="1" height="1" fill="#fdeee4"/><rect x="27" y="6" width="1" height="1" fill="#fdeee4"/><rect x="24" y="7" width="1" height="1" fill="#fdeee4"/><rect x="28" y="7" width="1" height="1" fill="#fdeee4"/><rect x="24" y="8" width="1" height="1" fill="#fdeee4"/><rect x="28" y="8" width="1" height="1" fill="#fdeee4"/><rect x="24" y="9" width="1" height="1" fill="#fdeee4"/><rect x="28" y="9" width="1" height="1" fill="#fdeee4"/><rect x="24" y="10" width="1" height="1" fill="#fdeee4"/><rect x="25" y="10" width="1" height="1" fill="#fdeee4"/><rect x="26" y="10" width="1" height="1" fill="#fdeee4"/><rect x="27" y="10" width="1" height="1" fill="#fdeee4"/><rect x="31" y="6" width="1" height="1" fill="#fdeee4"/><rect x="32" y="6" width="1" height="1" fill="#fdeee4"/><rect x="33" y="6" width="1" height="1" fill="#fdeee4"/><rect x="30" y="7" width="1" height="1" fill="#fdeee4"/><rect x="34" y="7" width="1" height="1" fill="#fdeee4"/><rect x="30" y="8" width="1" height="1" fill="#fdeee4"/><rect x="34" y="8" width="1" height="1" fill="#fdeee4"/><rect x="30" y="9" width="1" height="1" fill="#fdeee4"/><rect x="34" y="9" width="1" height="1" fill="#fdeee4"/><rect x="31" y="10" width="1" height="1" fill="#fdeee4"/><rect x="32" y="10" width="1" height="1" fill="#fdeee4"/><rect x="33" y="10" width="1" height="1" fill="#fdeee4"/><rect x="36" y="6" width="1" height="1" fill="#fdeee4"/><rect x="40" y="6" width="1" height="1" fill="#fdeee4"/><rect x="36" y="7" width="1" height="1" fill="#fdeee4"/><rect x="40" y="7" width="1" height="1" fill="#fdeee4"/><rect x="36" y="8" width="1" height="1" fill="#fdeee4"/><rect x="40" y="8" width="1" height="1" fill="#fdeee4"/><rect x="36" y="9" width="1" height="1" fill="#fdeee4"/><rect x="39" y="9" width="1" height="1" fill="#fdeee4"/><rect x="40" y="9" width="1" height="1" fill="#fdeee4"/><rect x="37" y="10" width="1" height="1" fill="#fdeee4"/><rect x="38" y="10" width="1" height="1" fill="#fdeee4"/><rect x="40" y="10" width="1" height="1" fill="#fdeee4"/><rect x="44" y="4" width="1" height="1" fill="#fdeee4"/><rect x="44" y="5" width="1" height="1" fill="#fdeee4"/><rect x="42" y="6" width="1" height="1" fill="#fdeee4"/><rect x="43" y="6" width="1" height="1" fill="#fdeee4"/><rect x="44" y="6" width="1" height="1" fill="#fdeee4"/><rect x="45" y="6" width="1" height="1" fill="#fdeee4"/><rect x="46" y="6" width="1" height="1" fill="#fdeee4"/><rect x="44" y="7" width="1" height="1" fill="#fdeee4"/><rect x="44" y="8" width="1" height="1" fill="#fdeee4"/><rect x="44" y="9" width="1" height="1" fill="#fdeee4"/><rect x="46" y="9" width="1" height="1" fill="#fdeee4"/><rect x="45" y="10" width="1" height="1" fill="#fdeee4"/></svg>